<svg width="24" height="24" viewBox="0 0 24 24" fill="none" xmlns="http://www.w3.org/2000/svg">
<path d="M8.4209 4.68744C8.53579 4.58264 8.72349 4.56955 8.85645 4.64838L8.90918 4.68744C9.0008 4.77103 9.01229 4.88138 8.94336 4.97162L8.90918 5.00873L2.46875 10.8828L1.51562 11.7519H18.7402C18.9637 11.7519 19.0625 11.905 19.0625 12.0019L19.0576 12.04C19.0359 12.1341 18.9359 12.2509 18.7402 12.2509H1.51562L2.46875 13.121L8.90918 18.9951C9.00078 19.0787 9.01233 19.189 8.94336 19.2792L8.90918 19.3163C8.84973 19.3705 8.76193 19.4052 8.66504 19.4052C8.59491 19.4052 8.52806 19.3869 8.4707 19.3525L8.41699 19.3124L0.577148 12.162C0.520653 12.1104 0.500056 12.0534 0.5 12.0019C0.5 11.9632 0.511341 11.9211 0.541016 11.8808L0.577148 11.8408L8.4209 4.68744Z" fill="white" stroke="white"/>
<path d="M2.39819 0.5H23.1785C23.3988 0.500029 23.4998 0.653354 23.4998 0.75293V23.251C23.4995 23.3478 23.4015 23.5 23.1785 23.5H2.39819C2.1754 23.4998 2.07721 23.3477 2.0769 23.251V18.9463C2.0769 18.8495 2.17506 18.6965 2.39819 18.6963C2.62163 18.6963 2.72046 18.8495 2.72046 18.9463V23.001H22.8562V1.00195H2.72046V5.05371C2.72046 5.1533 2.61859 5.30664 2.39819 5.30664C2.17535 5.30645 2.07716 5.15438 2.0769 5.05762V0.75293C2.0769 0.653409 2.17809 0.500198 2.39819 0.5Z" fill="white" stroke="white"/>
</svg>
