<svg width="24" height="24" viewBox="0 0 24 24" fill="none" xmlns="http://www.w3.org/2000/svg">
<mask id="path-1-inside-1_1_41" fill="white">
<path fill-rule="evenodd" clip-rule="evenodd" d="M14.1583 0.871321L23.0497 8.14545L23.0955 8.19582C23.2339 8.34803 23.446 8.59052 23.6255 8.87982C23.7967 9.15591 24 9.57102 24 10.0575V22.1516C24 23.1704 23.1755 24 22.1538 24H16.3939C15.6293 24 15.0093 23.3801 15.0093 22.6154V18.2713C15.0093 16.6106 13.6669 15.2682 12.0155 15.2682C10.3642 15.2682 9.02169 16.6106 9.02169 18.2713V22.6154C9.02169 23.3801 8.40185 24 7.63711 24H1.84615C0.824474 24 0 23.1704 0 22.1516V9.91615C0 9.31394 0.335068 8.82831 0.526025 8.5872C0.637375 8.44662 0.74652 8.33206 0.827363 8.25264C0.868338 8.2124 0.90348 8.17982 0.929908 8.15599C0.943154 8.14403 0.954314 8.13419 0.963046 8.1266L0.974317 8.11688L0.978526 8.11329L0.981028 8.11117C0.981028 8.11117 0.981748 8.11058 1.57615 8.81677L0.981028 8.11117L0.990941 8.10283L9.8112 0.873389C11.0263 -0.290327 12.9421 -0.291242 14.1583 0.871321ZM2.1715 9.52237L2.16628 9.52699C2.15698 9.53539 2.1411 9.55006 2.12085 9.56991C2.07924 9.6108 2.02512 9.66794 1.97321 9.73348C1.91969 9.80105 1.88123 9.8616 1.85884 9.90868C1.85226 9.92252 1.84835 9.93249 1.84615 9.93877V22.1516L1.84621 22.1531L7.17557 22.1538V18.2713C7.17557 15.5952 9.34043 13.422 12.0155 13.422C14.6907 13.422 16.8555 15.5952 16.8555 18.2713V22.1538H22.1532L22.1538 22.1516V10.0575C22.1538 10.0605 22.1546 10.0608 22.1538 10.0575C22.1507 10.0442 22.1343 9.978 22.0567 9.85311C21.9792 9.72822 21.8774 9.60342 21.7735 9.48665L17.3502 5.86784L12.9268 2.24903L12.8967 2.21944C12.3903 1.72139 11.5801 1.72177 11.0742 2.22031L11.0441 2.24995L2.1715 9.52237Z"/>
</mask>
<path fill-rule="evenodd" clip-rule="evenodd" d="M14.1583 0.871321L23.0497 8.14545L23.0955 8.19582C23.2339 8.34803 23.446 8.59052 23.6255 8.87982C23.7967 9.15591 24 9.57102 24 10.0575V22.1516C24 23.1704 23.1755 24 22.1538 24H16.3939C15.6293 24 15.0093 23.3801 15.0093 22.6154V18.2713C15.0093 16.6106 13.6669 15.2682 12.0155 15.2682C10.3642 15.2682 9.02169 16.6106 9.02169 18.2713V22.6154C9.02169 23.3801 8.40185 24 7.63711 24H1.84615C0.824474 24 0 23.1704 0 22.1516V9.91615C0 9.31394 0.335068 8.82831 0.526025 8.5872C0.637375 8.44662 0.74652 8.33206 0.827363 8.25264C0.868338 8.2124 0.90348 8.17982 0.929908 8.15599C0.943154 8.14403 0.954314 8.13419 0.963046 8.1266L0.974317 8.11688L0.978526 8.11329L0.981028 8.11117C0.981028 8.11117 0.981748 8.11058 1.57615 8.81677L0.981028 8.11117L0.990941 8.10283L9.8112 0.873389C11.0263 -0.290327 12.9421 -0.291242 14.1583 0.871321ZM2.1715 9.52237L2.16628 9.52699C2.15698 9.53539 2.1411 9.55006 2.12085 9.56991C2.07924 9.6108 2.02512 9.66794 1.97321 9.73348C1.91969 9.80105 1.88123 9.8616 1.85884 9.90868C1.85226 9.92252 1.84835 9.93249 1.84615 9.93877V22.1516L1.84621 22.1531L7.17557 22.1538V18.2713C7.17557 15.5952 9.34043 13.422 12.0155 13.422C14.6907 13.422 16.8555 15.5952 16.8555 18.2713V22.1538H22.1532L22.1538 22.1516V10.0575C22.1538 10.0605 22.1546 10.0608 22.1538 10.0575C22.1507 10.0442 22.1343 9.978 22.0567 9.85311C21.9792 9.72822 21.8774 9.60342 21.7735 9.48665L17.3502 5.86784L12.9268 2.24903L12.8967 2.21944C12.3903 1.72139 11.5801 1.72177 11.0742 2.22031L11.0441 2.24995L2.1715 9.52237Z" fill="white"/>
<path d="M14.1583 0.871321L-5.58376 21.525L-4.78668 22.2869L-3.93326 22.9851L14.1583 0.871321ZM23.0497 8.14545L44.1915 -11.0731L42.7732 -12.6333L41.1413 -13.9684L23.0497 8.14545ZM23.0955 8.19582L1.95371 27.4144L1.96013 27.4214L23.0955 8.19582ZM23.6255 8.87982L47.9063 -6.17901L47.9018 -6.18635L23.6255 8.87982ZM0.526025 8.5872L-21.871 -9.15252L-21.8717 -9.15174L0.526025 8.5872ZM0.827363 8.25264L-19.1912 -12.1333L-19.1957 -12.1288L0.827363 8.25264ZM0.929908 8.15599L20.0649 29.3734L20.0718 29.3672L0.929908 8.15599ZM0.963046 8.1266L-17.6963 -13.5103L-17.7367 -13.4754L-17.777 -13.4404L0.963046 8.1266ZM0.974317 8.11688L-17.5681 -13.6203L-17.6267 -13.5703L-17.685 -13.52L0.974317 8.11688ZM0.978526 8.11329L-17.5088 -13.6707L-17.5364 -13.6473L-17.5639 -13.6239L0.978526 8.11329ZM0.981028 8.11117L-17.4055 -13.758L-17.456 -13.7155L-17.5063 -13.6728L0.981028 8.11117ZM1.57615 8.81677L-20.2642 27.2376L23.435 -9.58202L1.57615 8.81677ZM0.990941 8.10283L-17.1209 -13.9944L-17.259 -13.8812L-17.3956 -13.7663L0.990941 8.10283ZM9.8112 0.873389L27.923 22.9706L28.7762 22.2713L29.5729 21.5083L9.8112 0.873389ZM2.1715 9.52237L-15.9405 -12.5748L-16.3494 -12.2395L-16.7457 -11.8894L2.1715 9.52237ZM2.16628 9.52699L-16.7509 -11.8848L-16.8711 -11.7787L-16.99 -11.6712L2.16628 9.52699ZM2.12085 9.56991L-17.8765 -10.8367L-17.8908 -10.8227L-17.9051 -10.8087L2.12085 9.56991ZM1.97321 9.73348L-20.4232 -8.00703L-20.4236 -8.00654L1.97321 9.73348ZM1.85884 9.90868L-23.9422 -2.36454L-23.9458 -2.35711L1.85884 9.90868ZM1.84615 9.93877L-25.1212 0.500185L-26.7253 5.08318V9.93877H1.84615ZM1.84615 22.1516H-26.7253V22.6878L-26.7052 23.2237L1.84615 22.1516ZM1.84621 22.1531L-26.7051 23.2252L-25.6727 50.7207L1.84225 50.7245L1.84621 22.1531ZM7.17557 22.1538L7.17162 50.7253L35.747 50.7292V22.1538H7.17557ZM16.8555 22.1538H-11.716V50.7253H16.8555V22.1538ZM22.1532 22.1538V50.7253H43.5751L49.5794 30.162L22.1532 22.1538ZM22.1538 22.1516L49.58 30.1598L50.7253 26.2376V22.1516H22.1538ZM22.1538 10.0575L50.0449 3.85946L50.004 3.67544L49.9607 3.49197L22.1538 10.0575ZM21.7735 9.48665L43.1234 -9.50042L41.6182 -11.193L39.8651 -12.6272L21.7735 9.48665ZM12.9268 2.24903L-7.10683 22.6201L-6.17563 23.5359L-5.16476 24.3629L12.9268 2.24903ZM12.8967 2.21944L-7.13765 22.5898L-7.13693 22.5905L12.8967 2.21944ZM11.0742 2.22031L31.1205 22.5788L31.1279 22.5715L11.0742 2.22031ZM11.0441 2.24995L29.156 24.3471L30.1629 23.5218L31.0905 22.6084L11.0441 2.24995ZM17.3502 5.86784L35.4417 -16.246L35.4417 -16.246L17.3502 5.86784ZM14.1583 0.871321L-3.93326 22.9851L4.9581 30.2593L23.0497 8.14545L41.1413 -13.9684L32.2499 -21.2425L14.1583 0.871321ZM23.0497 8.14545L1.90793 27.364L1.95372 27.4144L23.0955 8.19582L44.2372 -11.0227L44.1915 -11.0731L23.0497 8.14545ZM23.0955 8.19582L1.96013 27.4214C1.83199 27.2805 1.47745 26.8878 1.04477 26.3476C0.622371 25.8202 0.00881046 25.0088 -0.650763 23.946L23.6255 8.87982L47.9018 -6.18635C46.3183 -8.73784 44.6919 -10.5229 44.2308 -11.0298L23.0955 8.19582ZM23.6255 8.87982L-0.655317 23.9386C-1.63843 22.3535 -4.57143 17.3344 -4.57143 10.0575H24H52.5714C52.5714 1.80763 49.2319 -4.04165 47.9063 -6.17901L23.6255 8.87982ZM24 10.0575H-4.57143V22.1516H24H52.5714V10.0575H24ZM24 22.1516H-4.57143C-4.57143 7.46435 7.32256 -4.57143 22.1538 -4.57143V24V52.5714C39.0285 52.5714 52.5714 38.8765 52.5714 22.1516H24ZM22.1538 24V-4.57143H16.3939V24V52.5714H22.1538V24ZM16.3939 24V-4.57143C31.4088 -4.57143 43.5807 7.60047 43.5807 22.6154H15.0093H-13.5621C-13.5621 39.1597 -0.150278 52.5714 16.3939 52.5714V24ZM15.0093 22.6154H43.5807V18.2713H15.0093H-13.5621V22.6154H15.0093ZM15.0093 18.2713H43.5807C43.5807 0.888895 29.5043 -13.3033 12.0155 -13.3033V15.2682V43.8396C-2.17048 43.8396 -13.5621 32.3323 -13.5621 18.2713H15.0093ZM12.0155 15.2682V-13.3033C-5.47259 -13.3033 -19.5497 0.888321 -19.5497 18.2713H9.02169H37.5931C37.5931 32.3328 26.201 43.8396 12.0155 43.8396V15.2682ZM9.02169 18.2713H-19.5497V22.6154H9.02169H37.5931V18.2713H9.02169ZM9.02169 22.6154H-19.5497C-19.5497 7.60219 -7.37941 -4.57143 7.63711 -4.57143V24V52.5714C24.1831 52.5714 37.5931 39.1579 37.5931 22.6154H9.02169ZM7.63711 24V-4.57143H1.84615V24V52.5714H7.63711V24ZM1.84615 24V-4.57143C16.6776 -4.57143 28.5714 7.46453 28.5714 22.1516H0H-28.5714C-28.5714 38.8763 -15.0286 52.5714 1.84615 52.5714V24ZM0 22.1516H28.5714V9.91615H0H-28.5714V22.1516H0ZM0 9.91615H28.5714C28.5714 14.9373 27.1817 18.8833 26.0039 21.3653C24.8317 23.8355 23.539 25.5493 22.9237 26.3261L0.526025 8.5872L-21.8717 -9.15174C-22.9372 -7.80633 -28.5714 -0.802602 -28.5714 9.91615H0ZM0.526025 8.5872L22.9231 26.3269C22.1127 27.3501 21.3703 28.1234 20.8504 28.6341L0.827363 8.25264L-19.1957 -12.1288C-19.8773 -11.4592 -20.8379 -10.4569 -21.871 -9.15252L0.526025 8.5872ZM0.827363 8.25264L20.8459 28.6386C20.5638 28.9156 20.3006 29.1608 20.0649 29.3734L0.929908 8.15599L-18.2051 -13.0614C-18.4937 -12.8012 -18.8271 -12.4908 -19.1912 -12.1333L0.827363 8.25264ZM0.929908 8.15599L20.0718 29.3672C19.9508 29.4764 19.828 29.5851 19.7031 29.6936L0.963046 8.1266L-17.777 -13.4404C-17.9193 -13.3168 -18.0644 -13.1883 -18.2119 -13.0552L0.929908 8.15599ZM0.963046 8.1266L19.6224 29.7635L19.6337 29.7538L0.974317 8.11688L-17.685 -13.52L-17.6963 -13.5103L0.963046 8.1266ZM0.974317 8.11688L19.5167 29.8541L19.521 29.8505L0.978526 8.11329L-17.5639 -13.6239L-17.5681 -13.6203L0.974317 8.11688ZM0.978526 8.11329L19.4659 29.8973L19.4684 29.8952L0.981028 8.11117L-17.5063 -13.6728L-17.5088 -13.6707L0.978526 8.11329ZM0.981028 8.11117C19.105 30.1985 9.5667 35.3621 -1.20886 36.5986C-3.21024 36.3735 -7.68278 35.3374 -10.1041 34.4446C-13.0485 33.2051 -15.0904 31.7437 -15.6429 31.3484C-17.1228 30.2897 -18.1697 29.3164 -18.3867 29.1163C-19.0804 28.4767 -19.5908 27.9391 -19.6872 27.838C-20.0162 27.4934 -20.2654 27.2141 -20.3112 27.1629C-20.4703 26.985 -20.5928 26.8434 -20.6146 26.8182C-20.6917 26.7292 -20.7503 26.6604 -20.7567 26.6529C-20.7861 26.6184 -20.7977 26.6045 -20.766 26.642C-20.7108 26.7073 -20.5772 26.8657 -20.2827 27.2156L1.57615 8.81677L23.435 -9.58202C23.1351 -9.93839 22.9712 -10.1328 22.8774 -10.2437C22.8346 -10.2943 22.7857 -10.3522 22.7375 -10.4087C22.7218 -10.4272 22.6585 -10.5014 22.5791 -10.5932C22.5561 -10.6197 22.433 -10.762 22.2735 -10.9402C22.2276 -10.9916 21.9783 -11.2709 21.6493 -11.6156C21.5529 -11.7167 21.0425 -12.2544 20.3488 -12.894C20.1317 -13.0941 19.0849 -14.0674 17.605 -15.1261C17.0524 -15.5214 15.0105 -16.9828 12.0661 -18.2222C9.64483 -19.115 5.17229 -20.1512 3.17091 -20.3762C-7.60465 -19.1398 -17.1429 -13.9761 0.981028 8.11117ZM1.57615 8.81677L23.4165 -9.60407L22.8213 -10.3097L0.981028 8.11117L-20.8593 26.532L-20.2642 27.2376L1.57615 8.81677ZM0.981028 8.11117L19.3676 29.9803L19.3775 29.972L0.990941 8.10283L-17.3956 -13.7663L-17.4055 -13.758L0.981028 8.11117ZM0.990941 8.10283L19.1028 30.2001L27.923 22.9706L9.8112 0.873389L-8.30062 -21.2239L-17.1209 -13.9944L0.990941 8.10283ZM9.8112 0.873389L29.5729 21.5083C19.7461 30.9193 4.25206 30.9267 -5.58376 21.525L14.1583 0.871321L33.9004 -19.7824C21.6321 -31.5092 2.30656 -31.4999 -9.95051 -19.7616L9.8112 0.873389ZM2.1715 9.52237L-16.7457 -11.8894L-16.7509 -11.8848L2.16628 9.52699L21.0835 30.9388L21.0887 30.9342L2.1715 9.52237ZM2.16628 9.52699L-16.99 -11.6712C-17.2624 -11.425 -17.5604 -11.1465 -17.8765 -10.8367L2.12085 9.56991L22.1182 29.9765C21.8426 30.2466 21.5764 30.4958 21.3225 30.7252L2.16628 9.52699ZM2.12085 9.56991L-17.9051 -10.8087C-18.5412 -10.1837 -19.4473 -9.2391 -20.4232 -8.00703L1.97321 9.73348L24.3697 27.474C23.4975 28.575 22.6996 29.4053 22.1468 29.9485L2.12085 9.56991ZM1.97321 9.73348L-20.4236 -8.00654C-21.3468 -6.84109 -22.7193 -4.93541 -23.9422 -2.36453L1.85884 9.90868L27.6599 22.1819C27.0209 23.5252 26.3789 24.5993 25.8792 25.3701C25.3576 26.1747 24.844 26.8751 24.37 27.4735L1.97321 9.73348ZM1.85884 9.90868L-23.9458 -2.35711C-24.3504 -1.50578 -24.7529 -0.552048 -25.1212 0.500185L1.84615 9.93877L28.8135 19.3774C28.4496 20.417 28.0549 21.3508 27.6634 22.1745L1.85884 9.90868ZM1.84615 9.93877H-26.7253V22.1516H1.84615H30.4176V9.93877H1.84615ZM1.84615 22.1516L-26.7052 23.2237L-26.7051 23.2252L1.84621 22.1531L30.3975 21.0811L30.3975 21.0796L1.84615 22.1516ZM1.84621 22.1531L1.84225 50.7245L7.17162 50.7253L7.17557 22.1538L7.17953 -6.41758L1.85017 -6.41832L1.84621 22.1531ZM7.17557 22.1538H35.747V18.2713H7.17557H-21.3959V22.1538H7.17557ZM7.17557 18.2713H35.747C35.747 31.3067 25.1879 41.9934 12.0155 41.9934V13.422V-15.1494C-6.50708 -15.1494 -21.3959 -0.116331 -21.3959 18.2713H7.17557ZM12.0155 13.422V41.9934C-1.15691 41.9934 -11.716 31.3067 -11.716 18.2713H16.8555H45.4269C45.4269 -0.116251 30.5383 -15.1494 12.0155 -15.1494V13.422ZM16.8555 18.2713H-11.716V22.1538H16.8555H45.4269V18.2713H16.8555ZM16.8555 22.1538V50.7253H22.1532V22.1538V-6.41758H16.8555V22.1538ZM22.1532 22.1538L49.5794 30.162L49.58 30.1598L22.1538 22.1516L-5.27234 14.1435L-5.27299 14.1457L22.1532 22.1538ZM22.1538 22.1516H50.7253V10.0575H22.1538H-6.41758V22.1516H22.1538ZM22.1538 10.0575H-6.41758C-6.41758 11.1258 -6.35799 12.5119 -6.12829 14.114C-6.02729 14.8185 -5.80659 16.1904 -5.32858 17.872C-5.12075 18.6031 -4.60587 20.3298 -3.61745 22.3949C-3.13883 23.3949 -2.15329 25.3187 -0.500808 27.4691C0.734547 29.0767 4.73591 34.0423 12.122 36.8121C22.1113 40.5581 32.7633 38.3061 40.265 32.1579C45.8494 27.5811 48.0779 22.2191 48.7649 20.4614C50.3518 16.4016 50.5869 12.9508 50.6391 12.2808C50.8196 9.9659 50.6682 8.15315 50.6158 7.55718C50.4725 5.92707 50.216 4.62951 50.0449 3.85946L22.1538 10.0575L-5.73721 16.2555C-5.90796 15.4871 -6.16426 14.1908 -6.3075 12.5614C-6.35986 11.9659 -6.51128 10.1534 -6.3308 7.83869C-6.27856 7.16881 -6.0435 3.718 -4.45662 -0.341763C-3.76961 -2.09935 -1.54108 -7.4614 4.04326 -12.0382C11.545 -18.1863 22.197 -20.4384 32.1862 -16.6924C39.5723 -13.9226 43.5737 -8.95695 44.809 -7.34938C46.4615 -5.199 47.447 -3.27522 47.9256 -2.27528C48.914 -0.21024 49.4289 1.51638 49.6367 2.24738C50.1146 3.92876 50.3353 5.30036 50.4362 6.00443C50.6658 7.60578 50.7253 8.99068 50.7253 10.0575H22.1538ZM22.1538 10.0575L49.9607 3.49197C49.2159 0.337486 47.9637 -2.58649 46.3305 -5.21708L22.0567 9.85311L-2.21703 24.9233C-2.89306 23.8344 -3.58665 22.5443 -4.21236 21.0533C-4.89714 19.4215 -5.34907 17.9102 -5.653 16.623L22.1538 10.0575ZM22.0567 9.85311L46.3305 -5.21708C44.9831 -7.38736 43.6335 -8.92689 43.1234 -9.50042L21.7735 9.48665L0.423645 28.4737C0.212643 28.2365 -0.142144 27.8281 -0.562957 27.2912C-0.974906 26.7656 -1.57171 25.9627 -2.21703 24.9233L22.0567 9.85311ZM12.9268 2.24903L32.9604 -18.1221L32.9303 -18.1516L12.8967 2.21944L-7.13693 22.5905L-7.10683 22.6201L12.9268 2.24903ZM12.8967 2.21944L32.931 -18.1509C21.2989 -29.5911 2.64161 -29.5823 -8.97964 -18.1309L11.0742 2.22031L31.1279 22.5715C20.5186 33.0259 3.48163 33.0339 -7.13765 22.5898L12.8967 2.21944ZM11.0742 2.22031L-8.97224 -18.1382L-9.00233 -18.1086L11.0441 2.24995L31.0905 22.6084L31.1205 22.5788L11.0742 2.22031ZM11.0441 2.24995L-7.06792 -19.8472L-15.9405 -12.5748L2.1715 9.52237L20.2835 31.6195L29.156 24.3471L11.0441 2.24995ZM21.7735 9.48665L39.8651 -12.6272L35.4417 -16.246L17.3502 5.86784L-0.741382 27.9817L3.682 31.6005L21.7735 9.48665ZM17.3502 5.86784L35.4417 -16.246L31.0183 -19.8648L12.9268 2.24903L-5.16476 24.3629L-0.741376 27.9817L17.3502 5.86784Z" fill="white" mask="url(#path-1-inside-1_1_41)"/>
</svg>
