<svg width="16" height="16" viewBox="0 0 16 16" fill="none" xmlns="http://www.w3.org/2000/svg">
<path d="M6.41306 0C9.95592 0 12.8261 2.8702 12.8261 6.41306C12.8261 7.94449 12.2906 9.34857 11.3959 10.4522L15.8041 14.8604C16.0653 15.1216 16.0653 15.5429 15.8041 15.8041C15.5429 16.0653 15.1216 16.0653 14.8604 15.8041L10.4522 11.3959C9.34857 12.2906 7.94449 12.8261 6.41306 12.8261C2.8702 12.8261 9.53674e-07 9.95592 9.53674e-07 6.41306C9.53674e-07 2.8702 2.87347 0 6.41306 0ZM6.41306 11.4939C9.21796 11.4939 11.4939 9.21796 11.4939 6.41306C11.4939 3.60816 9.21796 1.33224 6.41306 1.33224C3.60816 1.33224 1.33225 3.60816 1.33225 6.41306C1.33225 9.21796 3.60816 11.4939 6.41306 11.4939Z" fill="white"/>
</svg>
